# xmcd
#
# Track frame offsets:
#        150
#        26635
#        55900
#        79582
#        104535
#        143820
#        166525
#        175160
#        199497
#        229370
#        248045
#        276055
#        317370
#
# Disc length: 4441 seconds
#
# Revision: 0
# Processed by: cddbd v1.5.1PL0 Copyright (c) Steve Scherf et al.
# Submitted via: ExactAudioCopy v0.95a5
#
DISCID=aa11570d
DTITLE=JUNGLE BROTHERS - V.I.P.
DYEAR=1999
DGENRE=Rap
TTITLE0=V.I.P.
TTITLE1=I REMEMBER (FEATURING THE HOLMES BROTHERS)
TTITLE2=GET DOWN
TTITLE3=EARLY MORNING
TTITLE4=DOWN WITH THE JBEEZ (FEATURING BLACK EYED PEAS, SENSE LIVE AND
TTITLE4=ALEX G.)
TTITLE5=THE BROTHERS
TTITLE6=PARTY GOIN' ON
TTITLE7=SEXY BODY
TTITLE8=PLAYING FOR KEEPS (FEATURING THE HOLMES BROTHERS AND ALEX G.)
TTITLE9=JBEEZ ROCK THE DANCEHALL
TTITLE10=FREAKIN' YOU
TTITLE11=STRICTLY DEDICATED
TTITLE12=BECAUSE I GOT IT LIKE THAT (ULTIMATUM MIX-PLUS 6 SPEED UP EXE
TTITLE12=CUTIVE DECISION)
EXTD=
EXTT0=
EXTT1=
EXTT2=
EXTT3=
EXTT4=
EXTT5=
EXTT6=
EXTT7=
EXTT8=
EXTT9=
EXTT10=
EXTT11=
EXTT12=
PLAYORDER=
